<svg xmlns="http://www.w3.org/2000/svg" width="64" height="58" viewBox="0 0 64 58" fill="none"><path d="M4.94716 1.10781H59.0528C61.4493 1.10781 63.4 3.05852 63.4 5.45498V37.5176C63.4 37.705 63.2481 37.8569 63.0607 37.8569C62.8733 37.8569 62.7213 37.705 62.7213 37.5176V5.45498C62.7213 3.43167 61.0761 1.78648 59.0528 1.78648H4.94716C2.92386 1.78648 1.27867 3.43167 1.27867 5.45498V37.5176C1.27867 39.5409 2.92386 41.1861 4.94716 41.1861H26.9902C27.1776 41.1861 27.3295 41.338 27.3295 41.5254C27.3295 41.7128 27.1776 41.8648 26.9902 41.8648H4.94716C2.55071 41.8648 0.6 39.9141 0.6 37.5176V5.45498C0.6 3.05852 2.55071 1.10781 4.94716 1.10781Z" stroke="url(#svg-gradient63218e9f43f07)" stroke-width="1.2"></path><path d="M7.95301 28.8412C7.76561 28.8412 7.61367 28.6892 7.61367 28.5018V26.4979C7.61367 26.3105 7.76561 26.1586 7.95301 26.1586C8.1404 26.1586 8.29234 26.3105 8.29234 26.4979V28.5018C8.29234 28.6892 8.1404 28.8412 7.95301 28.8412Z" stroke="url(#svg-gradient63218e9f43f07)" stroke-width="1.2"></path><path d="M13.6254 28.5018V26.4979C13.6254 26.3105 13.7773 26.1586 13.9647 26.1586C14.1521 26.1586 14.3041 26.3105 14.3041 26.4979V28.5018C14.3041 28.6892 14.1521 28.8412 13.9647 28.8412C13.7773 28.8412 13.6254 28.6892 13.6254 28.5018Z" stroke="url(#svg-gradient63218e9f43f07)" stroke-width="1.2"></path><path d="M21.3177 26.4979V28.5018C21.3177 28.6892 21.1658 28.8412 20.9784 28.8412C20.791 28.8412 20.6391 28.6892 20.6391 28.5018V26.4979C20.6391 26.3105 20.791 26.1586 20.9784 26.1586C21.1658 26.1586 21.3177 26.3105 21.3177 26.4979Z" stroke="url(#svg-gradient63218e9f43f07)" stroke-width="1.2"></path><path d="M26.6508 26.4979C26.6508 26.3105 26.8027 26.1586 26.9901 26.1586C27.1775 26.1586 27.3295 26.3105 27.3295 26.4979V28.5018C27.3295 28.6892 27.1775 28.8412 26.9901 28.8412C26.8027 28.8412 26.6508 28.6892 26.6508 28.5018V26.4979Z" stroke="url(#svg-gradient63218e9f43f07)" stroke-width="1.2"></path><path d="M51.0526 12.6972C51.0526 15.0936 49.1019 17.0443 46.7055 17.0443H40.6937C38.2973 17.0443 36.3466 15.0936 36.3466 12.6972C36.3466 10.3007 38.2973 8.35 40.6937 8.35H46.7055C49.1019 8.35 51.0526 10.3007 51.0526 12.6972ZM40.6937 9.02867C38.6704 9.02867 37.0253 10.6739 37.0253 12.6972C37.0253 14.7205 38.6704 16.3657 40.6937 16.3657H46.7055C48.7288 16.3657 50.374 14.7205 50.374 12.6972C50.374 10.6739 48.7288 9.02867 46.7055 9.02867H40.6937Z" stroke="url(#svg-gradient63218e9f43f07)" stroke-width="1.2"></path><path d="M31.0536 31.9286L31.0534 31.9287C30.9763 31.982 30.9247 32.0649 30.9109 32.1575L30.9109 32.1577C30.7433 33.2815 30.6586 34.4103 30.6586 35.5122C30.6586 45.1345 36.6931 54.1056 44.917 56.8749C44.9522 56.8867 44.9888 56.8926 45.0253 56.8926C45.0618 56.8926 45.0985 56.8867 45.1341 56.8748L45.3248 57.4426L45.1337 56.8749C53.3576 54.1056 59.3921 45.1345 59.3921 35.5122C59.3921 34.4103 59.3073 33.2815 59.1397 32.1578L31.0536 31.9286ZM31.0536 31.9286C31.1305 31.8754 31.2264 31.8563 31.3181 31.876M31.0536 31.9286L31.3181 31.876M31.3181 31.876C32.212 32.0687 33.1154 32.167 34.0038 32.167C38.3821 32.167 42.3964 29.9415 44.738 26.2196C44.8001 26.1208 44.9086 26.0609 45.0252 26.0609C45.1418 26.0609 45.2503 26.1208 45.3124 26.2196C47.6542 29.9415 51.6684 32.167 56.0467 32.167C56.9351 32.167 57.8383 32.0688 58.7319 31.8761L31.3181 31.876ZM35.2259 48.3098L35.7262 47.9784L35.226 48.3098C37.4583 51.6797 40.4792 54.2813 43.848 55.7371L44.686 56.0993V55.1864V29.13V27.6292L43.6514 28.7163C41.1566 31.3378 37.706 32.8457 34.0038 32.8457C33.3876 32.8457 32.7633 32.8009 32.1387 32.7119L31.5221 32.624L31.4572 33.2435C31.3776 34.0046 31.3373 34.7642 31.3373 35.5122C31.3373 39.9825 32.7188 44.5247 35.2259 48.3098ZM54.8247 48.3098L54.3245 47.9784L54.8247 48.3098C57.3319 44.5247 58.7134 39.9825 58.7134 35.5122C58.7134 34.7642 58.673 34.0046 58.5934 33.2435L58.5286 32.6241L57.9121 32.7119C57.2873 32.8008 56.663 32.8457 56.0469 32.8457C52.3446 32.8457 48.8941 31.3378 46.3993 28.7163L45.3647 27.6292V29.13V55.1865V56.0994L46.2027 55.7373C49.5716 54.2812 52.5924 51.6797 54.8247 48.3098ZM58.7322 31.876C58.8243 31.8563 58.9202 31.8755 58.9972 31.9287C59.0743 31.9821 59.1259 32.0649 59.1397 32.1577L58.7322 31.876Z" stroke="url(#svg-gradient63218e9f43f07)" stroke-width="1.2"></path></svg>