<svg xmlns="http://www.w3.org/2000/svg" width="58" height="64" viewBox="0 0 58 64" fill="none"><path d="M13.494 61.6159C13.4953 61.6149 13.4973 61.6136 13.4995 61.6121L13.4948 61.6153L13.494 61.6159ZM13.494 61.6159C13.4927 61.6168 13.492 61.6172 13.4925 61.6169L13.4932 61.6164L13.494 61.6159ZM13.6523 61.5421L13.6383 61.5458L13.6267 61.5497C12.9601 61.7334 12.4655 62.0379 11.9677 62.3443L11.9598 62.3492L11.9597 62.3492L11.9551 62.3521C11.0502 62.9088 10.0894 63.5 8.19735 63.5C6.30473 63.5 5.34393 62.9088 4.43912 62.3521L4.43448 62.3492L4.43437 62.3492L4.41681 62.3383C4.01628 62.0917 3.61121 61.8423 3.11976 61.6614C2.61226 61.4746 2.03225 61.3667 1.26662 61.3667C0.953694 61.3667 0.699951 61.1129 0.699951 60.8C0.699951 60.4871 0.953694 60.2333 1.26662 60.2333C3.16041 60.2333 4.12126 60.8251 5.02651 61.3826L5.0289 61.3841L5.02896 61.3841L5.04584 61.3945C5.44669 61.6413 5.85208 61.8909 6.34399 62.072C6.8516 62.2588 7.43171 62.3667 8.19735 62.3667C8.96298 62.3667 9.54299 62.2588 10.0505 62.072C10.542 61.891 10.9471 61.6416 11.3476 61.3949L11.3651 61.3842C11.6776 61.1919 11.9917 61.0027 12.3427 60.8314L12.7323 60.6412L12.5992 60.2286L2.86074 30.0409C2.81247 29.8911 2.82838 29.729 2.90456 29.5921L2.90493 29.5914C2.98091 29.4544 3.11025 29.355 3.26277 29.3167L8.85455 27.9188L9.23328 27.8241V27.4337V16C9.23328 15.6871 9.48703 15.4333 9.79995 15.4333H15.1333H15.6333V14.9333V7.46667C15.6333 7.15374 15.887 6.9 16.2 6.9H19.4H19.9V6.4V1.06667C19.9 0.753742 20.1537 0.5 20.4666 0.5H37.5333C37.8462 0.5 38.1 0.753742 38.1 1.06667V6.4V6.9H38.6H41.8C42.1129 6.9 42.3666 7.15374 42.3666 7.46667V14.9333V15.4333H42.8666H48.2C48.5129 15.4333 48.7666 15.6871 48.7666 16V27.4337V27.8241L49.1454 27.9188L54.7371 29.3167C54.8897 29.355 55.019 29.4544 55.095 29.5914L55.0953 29.5921C55.1715 29.729 55.1874 29.8911 55.1392 30.0409L45.3987 60.2348L45.2657 60.6468L45.6545 60.8373C46.001 61.0072 46.3122 61.194 46.621 61.3838L46.6377 61.3941C47.0393 61.6412 47.4452 61.8909 47.9378 62.072C48.446 62.2588 49.0269 62.3667 49.7937 62.3667C50.5605 62.3667 51.1414 62.2588 51.6496 62.072C52.1422 61.8909 52.5481 61.6412 52.9497 61.3941L52.9664 61.3838L52.9666 61.3837L52.9703 61.3814C53.8763 60.8246 54.8383 60.2333 56.7333 60.2333C57.0462 60.2333 57.3 60.4871 57.3 60.8C57.3 61.1129 57.0462 61.3667 56.7333 61.3667C55.9664 61.3667 55.3856 61.4745 54.8774 61.6614C54.3848 61.8425 53.9789 62.0922 53.5773 62.3392L53.5605 62.3495L53.5604 62.3496L53.5567 62.3519C52.6507 62.9088 51.6887 63.5 49.7937 63.5C47.8987 63.5 46.9367 62.9088 46.0307 62.3519L46.027 62.3496L46.0269 62.3495L46.0101 62.3392C45.6085 62.0922 45.2026 61.8425 44.71 61.6614C44.2018 61.4745 43.621 61.3667 42.8541 61.3667C42.088 61.3667 41.5077 61.4745 40.9998 61.6613C40.5082 61.8422 40.1029 62.0914 39.702 62.3379L39.6839 62.3491L39.6836 62.3493L39.6818 62.3503C38.7765 62.9079 37.8151 63.5 35.9197 63.5C34.0282 63.5 33.0679 62.9092 32.1632 62.3525L32.1579 62.3492L32.1578 62.3492L32.1402 62.3383C31.7397 62.0917 31.3347 61.8423 30.8434 61.6614C30.336 61.4746 29.7563 61.3667 28.9911 61.3667C28.2252 61.3667 27.645 61.4746 27.1372 61.6613C26.6457 61.8422 26.2404 62.0914 25.8395 62.3379L25.8214 62.3491L25.8211 62.3493L25.8187 62.3507C24.9135 62.9082 23.9526 63.5 22.0583 63.5C20.1645 63.5 19.2036 62.9082 18.2984 62.3507L18.296 62.3493L18.2959 62.3492L18.2791 62.3388C17.8782 62.092 17.4728 61.8424 16.9809 61.6614C16.4733 61.4746 15.8932 61.3667 15.1276 61.3667C14.5467 61.3667 14.0717 61.4293 13.6523 61.5421ZM21.5333 1.63333H21.0333V2.13333V6.4V6.9H21.5333H36.4666H36.9666V6.4V2.13333V1.63333H36.4666H21.5333ZM17.2666 8.03333H16.7666V8.53333V14.9333V15.4333H17.2666H40.7333H41.2333V14.9333V8.53333V8.03333H40.7333H17.2666ZM10.8666 16.5667H10.3666V17.0667V26.9004V27.5408L10.9879 27.3855L28.8624 22.9168L28.8631 22.9167C28.9528 22.8941 29.0471 22.8941 29.1368 22.9167L29.1375 22.9168L47.012 27.3855L47.6333 27.5408V26.9004V17.0667V16.5667H47.1333H10.8666ZM4.6443 30.1399L4.12556 30.2696L4.28972 30.7785L13.6989 59.9459L13.8249 60.3366L14.2327 60.289C14.5141 60.2562 14.8042 60.2333 15.1276 60.2333C17.0202 60.2333 17.981 60.8245 18.8858 61.3813L18.8904 61.3841L18.8905 61.3842L18.9081 61.395C19.3086 61.6416 19.7137 61.891 20.2051 62.072C20.7127 62.2588 21.2927 62.3667 22.0583 62.3667C22.8242 62.3667 23.4043 62.2588 23.9119 62.072C24.403 61.8913 24.808 61.6422 25.2086 61.3959L25.2275 61.3843L25.2276 61.3842L25.2324 61.3812C26.1372 60.8245 27.098 60.2333 28.9911 60.2333C30.8832 60.2333 31.844 60.8249 32.7485 61.3817L32.7524 61.3841L32.7701 61.395C33.1706 61.6416 33.5757 61.891 34.067 62.0719C34.5745 62.2588 35.1543 62.3667 35.9197 62.3667C36.6859 62.3667 37.2662 62.2588 37.7741 62.072C38.2657 61.8912 38.671 61.6419 39.0719 61.3954L39.09 61.3843L39.0903 61.3841L39.092 61.383C39.9974 60.8254 40.9588 60.2333 42.8541 60.2333C43.184 60.2333 43.4794 60.2571 43.7655 60.2911L44.174 60.3396L44.3004 59.948L53.7102 30.7785L53.8743 30.2696L53.3556 30.1399L30.1879 24.3477L29.5666 24.1924V24.8328V44.8C29.5666 45.1129 29.3129 45.3667 29 45.3667C28.687 45.3667 28.4333 45.1129 28.4333 44.8V24.8328V24.1924L27.812 24.3477L4.6443 30.1399ZM2.4681 29.3492L2.46811 29.3492L2.4681 29.3492Z" fill="url(#svg-gradient63218e9f3696f)" stroke="black"></path></svg>